<?xml version="1.0" standalone="no"?><!DOCTYPE svg PUBLIC "-//W3C//DTD SVG 1.1//EN" "http://www.w3.org/Graphics/SVG/1.1/DTD/svg11.dtd"><svg t="1585986853928" class="icon" viewBox="0 0 1024 1024" version="1.1" xmlns="http://www.w3.org/2000/svg" p-id="1113" xmlns:xlink="http://www.w3.org/1999/xlink" width="200" height="200"><defs><style type="text/css"></style></defs><path d="M512 512m-512 0a512 512 0 1 0 1024 0 512 512 0 1 0-1024 0Z" fill="#fb9678" p-id="1114"></path><path d="M759.9104 260.15744H257.24928c-17.89952 0-32.48128 13.5168-32.48128 30.3104v340.80768c0 16.71168 14.49984 30.3104 32.48128 30.3104H760.0128c17.89952 0 32.48128-13.53728 32.48128-30.3104V290.44736c-0.08192-16.75264-14.58176-30.28992-32.5632-30.28992z m-190.60736 248.50432c-10.752 9.4208-26.39872 11.07968-38.93248 4.15744l-85.48352-47.47264a5.3248 5.3248 0 0 0-6.4512 1.00352l-82.90304 87.4496c-3.8912 4.096-9.37984 6.38976-14.99136 6.38976a20.74624 20.74624 0 0 1-14.90944-35.10272l89.7024-94.63808a34.05824 34.05824 0 0 1 41.10336-6.20544l86.2208 47.9232a5.28384 5.28384 0 0 0 6.12352-0.67584l124.14976-108.2368a20.62336 20.62336 0 0 1 29.24544 1.98656 20.76672 20.76672 0 0 1-1.98656 29.22496l-130.8672 114.19648zM318.2592 719.72864h378.4704v33.792H318.2592v-33.792z m179.0976 30.4128v-81.1008h33.792v81.1008h-33.792z" fill="#ffffff" p-id="1115"></path></svg>